# xmcd
#
# Track frame offsets: 
#        150
#        21462
#        36840
#        64907
#        89665
#        110632
#        132087
#        154580
#        178247
#        190065
#        225472
#        248187
#
# Disc length: 3531 seconds
#
# Revision: 4
# Processed by: cddbd v1.5.2PL0 Copyright (c) Steve Scherf et al.
# Submitted via: ExactAudioCopy v0.99pb5
#
DISCID=a40dc90c
DTITLE=Paul Lamb and The King Snakes - Paul Lamb and The King Snakes
DYEAR=1990
DGENRE=Blues
TTITLE0=Hyping Woman
TTITLE1=I Got A Girl
TTITLE2=Mother-In-Law Blues
TTITLE3=I Don't Need You
TTITLE4=Don't Lose Your Cool
TTITLE5=Madison Blues
TTITLE6=My Woman Has A Black Cat Bone
TTITLE7=I Was Your Fool
TTITLE8=Fattening Frogs For Snakes
TTITLE9=Bloody Murder
TTITLE10=Everyday (I Have The Blues)
TTITLE11=Good Rockin' Tonight
EXTD=YEAR: 1990 ID3G: 0
EXTT0=
EXTT1=
EXTT2=
EXTT3=
EXTT4=
EXTT5=
EXTT6=
EXTT7=
EXTT8=
EXTT9=
EXTT10=
EXTT11=
PLAYORDER=
